<svg width="1081" height="461" viewBox="0 0 1081 461" fill="none" xmlns="http://www.w3.org/2000/svg">
<rect width="1081" height="461" fill="url(#paint0_linear_689_28982)"/>
<mask id="mask0_689_28982" style="mask-type:alpha" maskUnits="userSpaceOnUse" x="0" y="0" width="1081" height="461">
<rect width="1081" height="461" rx="10" fill="url(#paint1_linear_689_28982)"/>
</mask>
<g mask="url(#mask0_689_28982)">
<path d="M1505.43 556.284C1062.19 646.242 480.553 224.036 536.429 33.2281C579.205 -113.038 1179.83 36.6462 1137.64 -54.1745C1091.06 -154.785 708.142 -240.654 1390.64 -475.203" stroke="#00E3B4" stroke-width="2" stroke-miterlimit="10"/>
<path d="M1509.51 553.593C1072.56 641.703 499.689 225.917 553.538 36.8299C595.159 -109.153 1187.98 35.5586 1145.65 -55.2268C1099.32 -154.826 721.873 -239.591 1390.29 -469.766" stroke="#00E3B4" stroke-width="2" stroke-miterlimit="10"/>
<path d="M1513.6 550.91C1082.78 637.207 518.827 227.805 570.649 40.4399C610.971 -105.224 1196.21 34.1549 1153.51 -56.2354C1107.61 -154.716 735.462 -238.484 1390.12 -464.211" stroke="#00E3B4" stroke-width="2" stroke-miterlimit="10"/>
<path d="M1517.69 548.226C1093.15 632.675 537.998 229.837 587.938 44.1585C627.07 -101.366 1204.22 33.1105 1161.67 -57.3153C1115.79 -154.425 749.157 -237.557 1389.78 -458.766" stroke="#00E3B4" stroke-width="2" stroke-miterlimit="10"/>
<path d="M1521.74 545.39C1103.52 628.136 557.135 231.717 604.904 47.7957C642.846 -97.5901 1212.19 31.9138 1169.35 -58.441C1123.9 -154.431 762.745 -236.458 1389.43 -453.328" stroke="#00E3B4" stroke-width="2" stroke-miterlimit="10"/>
<path d="M1525.68 542.738C1113.74 623.637 576.09 233.492 622.193 51.511C658.8 -93.7002 1220.49 30.7953 1177.54 -59.3797C1132.37 -154.215 776.476 -235.39 1389.4 -447.812" stroke="#00E3B4" stroke-width="2" stroke-miterlimit="10"/>
<path d="M1529.76 540.058C1124.11 619.109 595.083 235.419 639.159 55.1597C674.611 -89.7681 1228.46 29.6101 1185.22 -60.4941C1140.34 -154.175 789.884 -234.388 1388.91 -442.328" stroke="#00E3B4" stroke-width="2" stroke-miterlimit="10"/>
<path d="M1533.85 537.367C1134.47 614.57 614.22 237.3 656.449 58.871C690.711 -85.9177 1236.76 28.4876 1193.38 -61.5812C1148.78 -154.107 803.761 -233.36 1388.85 -436.961" stroke="#00E3B4" stroke-width="2" stroke-miterlimit="10"/>
<path d="M1537.93 534.683C1144.7 610.074 633.355 239.187 673.559 62.4806C706.485 -82.1336 1244.87 27.2633 1201.24 -62.5902C1157.07 -153.996 817.348 -232.253 1388.5 -431.516" stroke="#00E3B4" stroke-width="2" stroke-miterlimit="10"/>
<path d="M1542.02 531.992C1155.06 605.535 652.313 240.959 690.705 66.2271C722.442 -78.2479 1252.88 26.2115 1209.25 -63.6421C1165.4 -153.749 831.081 -231.189 1388.34 -425.969" stroke="#00E3B4" stroke-width="2" stroke-miterlimit="10"/>
<path d="M1546.11 529.309C1165.43 601.004 671.304 242.882 707.815 69.8368C738.181 -74.6081 1261 24.9872 1217.08 -64.7954C1173.51 -153.747 844.632 -230.227 1387.99 -420.523" stroke="#00E3B4" stroke-width="2" stroke-miterlimit="10"/>
<path d="M1550.19 526.621C1175.83 596.613 690.441 244.766 724.96 73.5871C754.136 -70.7187 1269.15 23.9037 1225.12 -65.6991C1181.8 -153.64 858.364 -229.159 1387.79 -415.117" stroke="#00E3B4" stroke-width="2" stroke-miterlimit="10"/>
<path d="M1554.24 523.789C1186.16 591.933 709.363 246.397 742.035 77.0486C770.056 -66.9738 1277.27 22.6757 1232.95 -66.8563C1190.09 -153.534 871.952 -228.056 1387.47 -409.531" stroke="#00E3B4" stroke-width="2" stroke-miterlimit="10"/>
<path d="M1558.33 521.106C1196.39 587.437 728.354 248.32 759.18 80.8027C785.831 -63.1895 1285.39 21.4515 1240.92 -68.045C1198.35 -153.567 885.648 -227.129 1387.23 -404.266" stroke="#00E3B4" stroke-width="2" stroke-miterlimit="10"/>
<path d="M1562.41 518.419C1206.75 582.902 747.275 249.951 776.47 84.5179C801.75 -59.4441 1293.69 20.3329 1248.97 -68.9484C1206.68 -153.316 899.415 -225.917 1387.1 -398.57" stroke="#00E3B4" stroke-width="2" stroke-miterlimit="10"/>
<path d="M1566.5 515.731C1217.12 578.367 766.124 251.906 793.436 88.1589C817.526 -55.6641 1301.66 19.1401 1256.8 -70.1058C1214.93 -153.354 912.932 -225.103 1386.72 -393.273" stroke="#00E3B4" stroke-width="2" stroke-miterlimit="10"/>
<path d="M1570.59 513.043C1227.49 573.832 785.08 253.681 810.726 91.8737C833.446 -51.9191 1309.92 17.8766 1264.8 -71.154C1223.26 -153.103 926.555 -223.855 1386.41 -387.688" stroke="#00E3B4" stroke-width="2" stroke-miterlimit="10"/>
<path d="M1574.67 510.356C1237.71 569.332 803.856 255.347 827.835 95.4797C849.329 -48.3184 1318.04 16.6487 1272.67 -72.1667C1231.55 -152.996 940.107 -222.897 1386.2 -382.281" stroke="#00E3B4" stroke-width="2" stroke-miterlimit="10"/>
<path d="M1578.61 507.708C1248.11 564.945 822.669 257.161 844.837 99.269C864.996 -44.3545 1326.05 15.6043 1280.53 -73.1757C1239.81 -153.03 953.839 -221.825 1385.85 -376.836" stroke="#00E3B4" stroke-width="2" stroke-miterlimit="10"/>
<path d="M1582.7 505.024C1258.34 560.449 841.626 258.94 861.947 102.879C880.736 -40.7148 1334.16 14.3801 1288.36 -74.3291C1247.96 -152.884 967.247 -220.828 1385.51 -371.391" stroke="#00E3B4" stroke-width="2" stroke-miterlimit="10"/>
<path d="M1586.78 502.333C1268.7 555.91 860.438 260.747 879.237 106.59C896.656 -36.973 1342.46 13.2578 1296.55 -75.2715C1256.43 -152.671 981.159 -219.654 1385.52 -365.734" stroke="#00E3B4" stroke-width="2" stroke-miterlimit="10"/>
<path d="M1590.83 499.505C1279.03 551.234 879.179 262.273 896.311 110.055C912.36 -33.4779 1350.54 11.8888 1304.34 -76.5696C1264.65 -152.85 994.675 -218.837 1385.1 -360.578" stroke="#00E3B4" stroke-width="2" stroke-miterlimit="10"/>
<path d="M1594.92 496.819C1289.4 546.701 897.992 264.085 913.456 113.807C928.135 -29.6955 1358.7 10.8073 1312.39 -77.4714C1272.98 -152.597 1008.44 -217.623 1384.97 -354.881" stroke="#00E3B4" stroke-width="2" stroke-miterlimit="10"/>
<path d="M1599 494.132C1299.8 542.31 916.769 265.751 930.602 117.557C943.911 -25.9153 1366.85 9.7234 1320.25 -78.4844C1281.27 -152.49 1022.03 -216.52 1384.62 -349.44" stroke="#00E3B4" stroke-width="2" stroke-miterlimit="10"/>
<path d="M1603.09 491.444C1310.17 537.774 935.545 267.417 947.712 121.163C959.65 -22.2796 1374.96 8.49509 1328.22 -79.6773C1289.67 -152.564 1035.73 -215.597 1384.41 -344.034" stroke="#00E3B4" stroke-width="2" stroke-miterlimit="10"/>
<path d="M1607.18 488.76C1320.39 533.278 954.213 269.266 964.857 124.917C975.425 -18.4955 1383.12 7.41526 1336.12 -80.5419C1297.85 -152.273 1049.35 -214.346 1383.96 -338.409" stroke="#00E3B4" stroke-width="2" stroke-miterlimit="10"/>
<path d="M1611.26 486.072C1330.76 528.742 972.99 270.932 981.967 128.523C991.165 -14.8597 1391.24 6.18698 1344.09 -81.7347C1306.29 -152.202 1063.05 -213.423 1383.9 -333.038" stroke="#00E3B4" stroke-width="2" stroke-miterlimit="10"/>
<path d="M1615.35 483.384C1341.13 524.207 991.623 272.634 999.257 132.237C1007.05 -11.2594 1399.53 5.06762 1352.1 -82.7832C1314.73 -152.131 1076.6 -212.465 1383.55 -327.597" stroke="#00E3B4" stroke-width="2" stroke-miterlimit="10"/>
<path d="M1619.43 480.701C1351.49 519.675 1010.26 274.339 1016.37 135.847C1022.65 -7.58413 1407.61 3.69907 1360.11 -83.8276C1323.02 -152.021 1090.33 -211.393 1383.38 -322.043" stroke="#00E3B4" stroke-width="2" stroke-miterlimit="10"/>
<path d="M1623.52 478.013C1361.9 515.284 1028.89 276.04 1033.51 139.597C1038.38 -3.94846 1415.77 2.61514 1367.98 -84.8407C1331.31 -151.914 1103.92 -210.291 1383.03 -316.602" stroke="#00E3B4" stroke-width="2" stroke-miterlimit="10"/>
<path d="M1627.57 475.181C1372.08 510.64 1047.48 277.597 1050.62 143.202C1053.98 -0.277281 1423.88 1.38686 1375.95 -86.0335C1339.71 -151.988 1117.61 -209.368 1382.83 -311.196" stroke="#00E3B4" stroke-width="2" stroke-miterlimit="10"/>
<path d="M1631.65 472.493C1382.45 506.104 1066.12 279.298 1067.73 146.808C1069.54 3.24953 1432.15 0.12315 1383.81 -87.0466C1348 -151.881 1131.2 -208.265 1382.48 -305.754" stroke="#00E3B4" stroke-width="2" stroke-miterlimit="10"/>
<path d="M1635.6 469.848C1392.82 501.576 1084.6 281.043 1084.88 150.565C1085.17 7.07272 1440.3 -0.953061 1391.82 -88.0873C1356.29 -151.767 1144.93 -207.19 1382.31 -300.197" stroke="#00E3B4" stroke-width="2" stroke-miterlimit="10"/>
<path d="M1639.68 467.161C1403.04 497.076 1103.06 282.635 1101.99 154.171C1100.73 10.5995 1448.42 -2.18132 1399.65 -89.2447C1364.73 -151.696 1158.52 -206.087 1382.11 -294.791" stroke="#00E3B4" stroke-width="2" stroke-miterlimit="10"/>
<path d="M1643.77 464.469C1413.41 492.537 1121.55 284.368 1119.13 157.917C1116.33 14.267 1456.57 -3.26896 1407.69 -90.1526C1373.02 -151.593 1172.25 -205.024 1381.8 -289.209" stroke="#00E3B4" stroke-width="2" stroke-miterlimit="10"/>
<path d="M1647.85 461.785C1423.81 488.149 1140.14 285.929 1136.24 161.527C1131.89 17.7975 1464.83 -4.52897 1415.52 -91.3063C1381.28 -151.627 1185.8 -204.062 1381.42 -283.908" stroke="#00E3B4" stroke-width="2" stroke-miterlimit="10"/>
<path d="M1651.94 459.101C1434.18 483.618 1158.63 287.67 1153.39 165.281C1147.34 21.5082 1472.95 -5.75318 1423.53 -92.3507C1389.71 -151.552 1199.54 -202.99 1381.25 -278.354" stroke="#00E3B4" stroke-width="2" stroke-miterlimit="10"/>
<path d="M1656.02 456.413C1444.4 479.118 1176.94 289.297 1170.5 168.886C1162.79 25.2147 1481.07 -6.98147 1431.4 -93.3637C1398.01 -151.446 1213.09 -202.032 1380.9 -272.913" stroke="#00E3B4" stroke-width="2" stroke-miterlimit="10"/>
</g>
<defs>
<linearGradient id="paint0_linear_689_28982" x1="843" y1="411" x2="1219" y2="-35" gradientUnits="userSpaceOnUse">
<stop stop-color="#00E3B4"/>
<stop offset="1" stop-color="#5663F6"/>
</linearGradient>
<linearGradient id="paint1_linear_689_28982" x1="501" y1="157" x2="1115" y2="363" gradientUnits="userSpaceOnUse">
<stop stop-color="#00E3B4"/>
<stop offset="1" stop-color="#5663F6"/>
</linearGradient>
</defs>
</svg>
